<?xml version="1.0" encoding="UTF-8"?>
<svg id="Layer_1" data-name="Layer 1" xmlns="http://www.w3.org/2000/svg" viewBox="0 0 94.14 92.48">
  <defs>
    <style>
      .cls-1 {
        fill: #df94ea;
      }

      .cls-2 {
        fill: #6d469b;
      }

      .cls-3 {
        fill: #59189c;
      }

      .cls-4 {
        fill: #af56e5;
      }
    </style>
  </defs>
  <path class="cls-2" d="M47.06,27.58l19.21,18.77h27.24C93.51,21.09,72.72.6,47.06.6S.62,21.09.62,46.35h27.24l19.21-18.77h0Z"/>
  <path class="cls-3" d="M36.76,37.69l10.33-10.1,8.51,8.32c12.17-1.51,23.92-3.75,34.66-6.39C83.6,12.8,66.63.6,46.93.6,24.11.6,5.16,16.77,1.39,38.02c11.17.56,23.06.47,35.37-.35h0Z"/>
  <path class="cls-4" d="M3.05,31.48c4.36-.21,8.77-.5,13.24-.9,24.79-2.19,47.75-7,66.51-13.46C74.32,7.03,61.3.6,46.9.6,26.48.6,9.17,13.54,3.05,31.48Z"/>
  <path class="cls-1" d="M21.44,23.29c18.75-3.76,36.22-8.95,51.39-14.99C65.45,3.43,56.48.6,46.9.6,28.59.6,12.77,11.01,5.28,26.1c5.31-.79,10.7-1.73,16.15-2.82Z"/>
  <path class="cls-2" d="M6.87,66.88l21.24-20.77H.62c0,7.81,1.99,15.16,5.49,21.6.23-.28.47-.56.75-.83Z"/>
  <path class="cls-2" d="M66.03,46.12l21.24,20.77c.28.27.52.55.75.83,3.51-6.43,5.49-13.78,5.49-21.6h-27.49Z"/>
  <path class="cls-3" d="M87.27,66.88c.3.3.57.61.82.92,2.23-4.12,3.83-8.62,4.68-13.36-5.99-.3-12.19-.4-18.55-.32l13.05,12.76Z"/>
  <path class="cls-3" d="M6.77,66.98l6.26-6.12c-3.06.64-6.24,1.28-9.19,2.01.63,1.61,1.46,3.32,2.28,4.84.19-.23.42-.51.65-.73Z"/>
  <path class="cls-4" d="M81.84,61.57l5.43,5.3c.3.3.57.61.82.92,1.18-2.17,2.18-4.45,2.99-6.81-3.05.15-6.13.35-9.24.58Z"/>
  <path class="cls-4" d="M77.44,79.48l-5.25-4.51c-6.67-5.74-14.89-8.81-23.23-9.21-4.57-.3-13.05.53-19.81,4.32-2.55,1.33-4.96,2.96-7.21,4.89l-5.25,4.51c-.26.15-.53.28-.79.4,8.24,7.44,19.24,11.99,31.33,11.99s23.01-4.51,31.24-11.89c-.35-.14-.69-.3-1.04-.49v-.02Z"/>
  <path class="cls-1" d="M87.27,66.88c.31.3.58.62.83.94.26-.48.51-.96.76-1.46-.61.09-1.21.19-1.82.28l.24.23h0Z"/>
  <path class="cls-1" d="M77.9,79.72c-.3-.15-.59-.35-.84-.57l-4.86-4.18c-1.96-1.69-4.06-3.14-6.25-4.36-16.17,3.6-31.22,8.23-44.56,13.53,7.38,4.88,16.27,7.72,25.85,7.72,12.05,0,23.02-4.51,31.25-11.89-.19-.08-.39-.16-.58-.26h0Z"/>
</svg>