<?xml version="1.0" encoding="UTF-8"?>
<svg id="Layer_1" data-name="Layer 1" xmlns="http://www.w3.org/2000/svg" viewBox="0 0 326.7 133.47">
  <defs>
    <style>
      .cls-1 {
        fill: #af8bea;
      }

      .cls-2 {
        fill: #df94ea;
      }

      .cls-3 {
        fill: #6e4994;
      }

      .cls-4 {
        fill: #a57fcb;
      }
    </style>
  </defs>
  <path class="cls-3" d="M182.79,80.78c0,17.33-12.02,30.85-27.96,30.85-7.39,0-13.52-3-17.68-9.13v30.96h-13.86V52.02h12.94v8.9c4.04-7.05,10.63-10.63,18.72-10.63,15.94,0,27.84,13.17,27.84,30.5ZM169.16,80.78c0-11.09-7.05-18.49-16.75-18.49s-17.45,7.39-17.45,18.6,7.39,18.6,17.45,18.6,16.75-7.51,16.75-18.72Z"/>
  <path class="cls-3" d="M211.79,64.15v24.61c0,6.35,2.89,9.94,9.36,9.94,2.54,0,5.2-.58,6.59-1.16v12.36c-1.96,1.04-5.78,1.73-9.01,1.73-12.82,0-20.56-8.55-20.56-22.87v-24.61h-10.74v-12.13h10.74v-17.91h13.63v17.91h15.94v12.13h-15.94Z"/>
  <path class="cls-3" d="M264.89,80.9c0-17.56,14.09-30.62,30.85-30.62s30.96,13.17,30.96,30.62-13.98,30.73-30.96,30.73-30.85-13.17-30.85-30.73ZM313.18,80.9c0-11.21-7.39-18.49-17.45-18.49s-17.45,7.28-17.45,18.49,7.74,18.6,17.45,18.6,17.45-7.51,17.45-18.6Z"/>
  <path class="cls-3" d="M240.53,52.04h13.86v57.77h-13.86v-57.77Z"/>
  <path class="cls-3" d="M247.46,26.11c-5.44,0-9.18,3.02-9.18,8.94,0,5.44,3.75,8.58,9.18,8.58s9.18-3.14,9.18-8.58c0-5.92-3.63-8.94-9.18-8.94Z"/>
  <g>
    <path class="cls-3" d="M7.41,80.46l25.21-25.21H0c0,9.48,2.36,18.41,6.52,26.22.27-.34.56-.68.89-1.01Z"/>
    <path class="cls-3" d="M77.62,55.26l25.21,25.21c.33.33.62.67.89,1.01,4.16-7.81,6.52-16.73,6.52-26.22h-32.61Z"/>
  </g>
  <g>
    <path class="cls-1" d="M102.82,80.46c.36.36.68.74.97,1.12,2.65-5,4.55-10.46,5.55-16.22-7.11-.37-14.47-.49-22.01-.39l15.49,15.49Z"/>
    <path class="cls-1" d="M7.41,80.46l7.37-7.37c-3.63.78-7.2,1.6-10.69,2.48.75,1.96,1.61,3.86,2.58,5.71.23-.28.47-.55.74-.82Z"/>
  </g>
  <g>
    <path class="cls-4" d="M96.38,74.02l6.44,6.44c.36.36.68.74.97,1.12,1.4-2.64,2.59-5.4,3.55-8.27-3.62.18-7.28.43-10.96.71Z"/>
    <path class="cls-4" d="M91.16,95.76l-6.23-5.48c-7.92-6.97-17.67-10.69-27.56-11.18-5.42-.37-15.48.64-23.51,5.25-3.02,1.61-5.89,3.59-8.56,5.94l-6.23,5.48c-.31.18-.63.34-.94.48,9.78,9.03,22.83,14.56,37.18,14.56s27.31-5.48,37.07-14.44c-.41-.17-.82-.36-1.23-.59Z"/>
  </g>
  <g>
    <path class="cls-2" d="M102.82,80.46c.37.37.69.75.98,1.14.31-.58.61-1.17.9-1.77-.72.11-1.44.23-2.16.34l.28.28Z"/>
    <path class="cls-2" d="M91.7,96.05c-.36-.18-.7-.42-1-.69l-5.77-5.08c-2.33-2.05-4.82-3.81-7.42-5.29-19.19,4.37-37.05,9.99-52.88,16.43,8.76,5.92,19.31,9.37,30.68,9.37,14.3,0,27.32-5.47,37.08-14.44-.23-.1-.46-.2-.69-.31Z"/>
  </g>
  <path class="cls-3" d="M55.11,32.75l22.79,22.79h32.33C110.23,24.87,85.55,0,55.11,0S0,24.87,0,55.54h32.33l22.79-22.79Z"/>
  <path class="cls-1" d="M42.85,45.02l12.26-12.26,10.1,10.1c14.44-1.83,28.19-4.42,40.93-7.63C98.24,14.63,78.29,0,54.92,0,27.83,0,5.35,19.63.88,45.43c13.26.68,27.36.57,41.97-.42Z"/>
  <path class="cls-4" d="M2.88,37.49c5.17-.25,10.41-.61,15.71-1.09,29.42-2.66,56.47-8.5,78.73-16.34C87.26,7.81,72,0,54.92,0,30.69,0,10.15,15.71,2.88,37.49Z"/>
  <path class="cls-2" d="M24.7,27.54c22.25-4.56,42.89-10.84,60.9-18.17C76.84,3.46,66.28,0,54.92,0,33.19,0,14.41,12.64,5.53,30.96c6.3-.96,12.7-2.1,19.17-3.42Z"/>
</svg>