<?xml version="1.0" encoding="UTF-8"?>
<svg id="Layer_1" data-name="Layer 1" xmlns="http://www.w3.org/2000/svg" viewBox="0 0 326.7 133.47">
  <defs>
    <style>
      .cls-1 {
        fill: #482f68;
      }
    </style>
  </defs>
  <path class="cls-1" d="M182.79,80.78c0,17.33-12.02,30.85-27.96,30.85-7.39,0-13.52-3-17.68-9.13v30.96h-13.86V52.02h12.94v8.9c4.04-7.05,10.63-10.63,18.72-10.63,15.94,0,27.84,13.17,27.84,30.5ZM169.16,80.78c0-11.09-7.05-18.49-16.75-18.49s-17.45,7.39-17.45,18.6,7.39,18.6,17.45,18.6,16.75-7.51,16.75-18.72Z"/>
  <path class="cls-1" d="M211.79,64.15v24.61c0,6.35,2.89,9.94,9.36,9.94,2.54,0,5.2-.58,6.59-1.16v12.36c-1.96,1.04-5.78,1.73-9.01,1.73-12.82,0-20.56-8.55-20.56-22.87v-24.61h-10.74v-12.13h10.74v-17.91h13.63v17.91h15.94v12.13h-15.94Z"/>
  <path class="cls-1" d="M264.89,80.9c0-17.56,14.09-30.62,30.85-30.62s30.96,13.17,30.96,30.62-13.98,30.73-30.96,30.73-30.85-13.17-30.85-30.73ZM313.18,80.9c0-11.21-7.39-18.49-17.45-18.49s-17.45,7.28-17.45,18.49,7.74,18.6,17.45,18.6,17.45-7.51,17.45-18.6Z"/>
  <path class="cls-1" d="M240.53,52.04h13.86v57.77h-13.86v-57.77Z"/>
  <path class="cls-1" d="M247.46,26.11c-5.44,0-9.18,3.02-9.18,8.94,0,5.44,3.75,8.58,9.18,8.58s9.18-3.14,9.18-8.58c0-5.92-3.63-8.94-9.18-8.94Z"/>
  <g>
    <path class="cls-1" d="M7.41,81.55l47.71-47.71,47.71,47.71c.32.32.6.65.87.99,4.52-8.02,7.11-17.28,7.11-27.14C110.8,24.8,85.99,0,55.4,0S0,24.8,0,55.4c0,9.7,2.5,18.81,6.88,26.74.17-.2.34-.39.53-.58Z"/>
    <path class="cls-1" d="M91.16,96.86l-6.23-5.48c-17.05-14.99-42.58-14.99-59.63,0l-6.23,5.48c-.08.05-.17.08-.25.13,9.76,8.59,22.56,13.81,36.58,13.81s26.64-5.15,36.37-13.63c-.2-.1-.41-.2-.61-.31Z"/>
  </g>
</svg>